<svg id="bdbfff73-3fbc-4c7d-9d47-4fa362cf9c8d" data-name="Layer 1" xmlns="http://www.w3.org/2000/svg" viewBox="0 0 718.91 191.71"><defs><style>.f9d9a623-5c19-4067-af46-91be4373437d{fill:#f05;}</style></defs><path d="M151.81,71.76c0,43.78-30.31,71.76-69.43,71.76-17.35,0-31.6-5.44-42-16.84v65H0V2.07H38.6V18.13C48.7,6,63.73,0,82.38,0,121.5,0,151.81,28,151.81,71.76Zm-40.93,0c0-24.09-15.29-38.6-35.49-38.6S39.9,47.67,39.9,71.76s15.28,38.6,35.49,38.6S110.88,95.85,110.88,71.76Z"/><path d="M249.74,0V37.31c-3.37-.26-6-.52-9.07-.52-22.28,0-37,12.17-37,38.86v65.8H163.21V2.07h38.6v18.4C211.66,7,228.24,0,249.74,0Z"/><path d="M417.09,2.07l-58.8,139.38H316.58L258,2.07h41.71l38.6,94.82L378.23,2.07Z"/><path d="M667.87,2.07,617.35,141.45H578.49L547.14,54.92l-32.38,86.53H475.9L425.64,2.07h38.09l32.9,94.3,34.19-94.3H565l33.16,94.3,33.94-94.3Z"/><path class="f9d9a623-5c19-4067-af46-91be4373437d" d="M668.65,118.13c0-15,11.14-24.87,25.13-24.87s25.13,9.85,25.13,24.87c0,14.77-11.14,25.39-25.13,25.39S668.65,132.9,668.65,118.13Z"/></svg>